HIERARCHY
ROOT Hips
{
	OFFSET 0.000000 0.000000 0.000000
	CHANNELS 6 Xposition Yposition Zposition Xrotation Yrotation Zrotation
	JOINT LeftUpLeg_virtual
	{
		OFFSET 0.000000 0.000000 0.000000
		CHANNELS 3 Xrotation Yrotation Zrotation
		JOINT LeftUpLeg
		{
			OFFSET 15.427100 -6.655098 0.678600
			CHANNELS 3 Xrotation Yrotation Zrotation
			JOINT LeftLeg
			{
				OFFSET 4.081073 -39.591068 13.024000
				CHANNELS 3 Xrotation Yrotation Zrotation
				JOINT LeftFoot
				{
					OFFSET -4.081074 -37.707932 -15.979700
					CHANNELS 3 Xrotation Yrotation Zrotation
					JOINT LeftToeBase
					{
						OFFSET 5.346399 -15.068900 20.645000
						CHANNELS 3 Xrotation Yrotation Zrotation
						JOINT LeftToe_End
						{
							OFFSET 2.754700 0.931300 11.300900
							CHANNELS 3 Xrotation Yrotation Zrotation
							End Site
							{
								OFFSET 0 0 0
							}
						}
					}
				}
			}
		}
	}
	JOINT RightUpLeg_virtual
	{
		OFFSET 0.000000 0.000000 0.000000
		CHANNELS 3 Xrotation Yrotation Zrotation
		JOINT RightUpLeg
		{
			OFFSET -15.569500 -6.655098 0.678600
			CHANNELS 3 Xrotation Yrotation Zrotation
			JOINT RightLeg
			{
				OFFSET -4.081825 -39.591045 13.023800
				CHANNELS 3 Xrotation Yrotation Zrotation
				JOINT RightFoot
				{
					OFFSET 4.081824 -37.707954 -15.979600
					CHANNELS 3 Xrotation Yrotation Zrotation
					JOINT RightToeBase
					{
						OFFSET -5.346400 -15.068900 20.645000
						CHANNELS 3 Xrotation Yrotation Zrotation
						JOINT RightToe_End
						{
							OFFSET -2.754700 0.931300 11.300900
							CHANNELS 3 Xrotation Yrotation Zrotation
							End Site
							{
								OFFSET 0 0 0
							}
						}
					}
				}
			}
		}
	}
	JOINT Spine_virtual
	{
		OFFSET 0.000000 0.000000 0.000000
		CHANNELS 3 Xrotation Yrotation Zrotation
		JOINT Spine
		{
			OFFSET -0.279200 12.230698 -2.892100
			CHANNELS 3 Xrotation Yrotation Zrotation
			JOINT Spine1
			{
				OFFSET -0.232667 10.192268 -1.242267
				CHANNELS 3 Xrotation Yrotation Zrotation
				JOINT Spine1_split
				{
					OFFSET -0.232667 10.192268 -1.242267
					CHANNELS 3 Xrotation Yrotation Zrotation
					JOINT Spine2
					{
						OFFSET -0.232667 10.192268 -1.242267
						CHANNELS 3 Xrotation Yrotation Zrotation
						JOINT Neck_virtual
						{
							OFFSET 0.000000 0.000000 0.000000
							CHANNELS 3 Xrotation Yrotation Zrotation
							JOINT Neck
							{
								OFFSET -0.418800 17.814194 8.416900
								CHANNELS 3 Xrotation Yrotation Zrotation
								JOINT Head
								{
									OFFSET 0.000000 7.031097 3.806800
									CHANNELS 3 Xrotation Yrotation Zrotation
									JOINT HeadTop_End
									{
										OFFSET 0.000000 24.646606 12.978600
										CHANNELS 3 Xrotation Yrotation Zrotation
										End Site
										{
											OFFSET 0 0 0
										}
									}
								}
							}
						}
						JOINT LeftShoulder_virtual
						{
							OFFSET 0.000000 0.000000 0.000000
							CHANNELS 3 Xrotation Yrotation Zrotation
							JOINT LeftShoulder
							{
								OFFSET 8.476499 7.247704 -3.868750
								CHANNELS 3 Xrotation Yrotation Zrotation
								JOINT LeftShoulder_split
								{
									OFFSET 8.476499 7.247704 -3.868750
									CHANNELS 3 Xrotation Yrotation Zrotation
									JOINT LeftArm
									{
										OFFSET 9.308998 -2.777710 0.208600
										CHANNELS 3 Xrotation Yrotation Zrotation
										JOINT LeftForeArm
										{
											OFFSET 29.972298 0.000000 0.000000
											CHANNELS 3 Xrotation Yrotation Zrotation
											JOINT LeftHand
											{
												OFFSET 26.026505 0.000000 0.000000
												CHANNELS 3 Xrotation Yrotation Zrotation
												End Site
												{
													OFFSET 0 0 0
												}
											}
										}
									}
								}
							}
						}
						JOINT RightShoulder_virtual
						{
							OFFSET 0.000000 0.000000 0.000000
							CHANNELS 3 Xrotation Yrotation Zrotation
							JOINT RightShoulder
							{
								OFFSET -7.570500 7.247704 -3.868750
								CHANNELS 3 Xrotation Yrotation Zrotation
								JOINT RightShoulder_split
								{
									OFFSET -7.570500 7.247704 -3.868750
									CHANNELS 3 Xrotation Yrotation Zrotation
									JOINT RightArm
									{
										OFFSET -9.308998 -2.777710 0.208500
										CHANNELS 3 Xrotation Yrotation Zrotation
										JOINT RightForeArm
										{
											OFFSET -29.972300 0.000000 0.000000
											CHANNELS 3 Xrotation Yrotation Zrotation
											JOINT RightHand
											{
												OFFSET -26.026505 0.000000 0.000000
												CHANNELS 3 Xrotation Yrotation Zrotation
												End Site
												{
													OFFSET 0 0 0
												}
											}
										}
									}
								}
							}
						}
					}
				}
			}
		}
	}
}
MOTION
Frames: 10
Frame Time: 0.03333333
-0.909558 72.617790 4.029987 0.000000 0.000000 0.000000 9.110736 -46.345774 11.181943 -61.456191 18.121180 45.523733 47.992297 -21.629240 2.382713 1.052553 3.996663 -19.902184 -3.014164 -3.314439 11.662863 0.000000 0.000000 0.000000 9.314423 -45.551389 12.095675 -23.114298 8.983317 -29.219143 45.649078 8.970606 -2.241301 -24.901760 1.919626 30.191277 10.096814 3.912346 1.052916 0.000000 0.000000 0.000000 7.555344 -52.405173 10.572155 10.769692 4.989076 -3.208095 5.043554 8.782001 -4.375162 -0.359468 -2.317212 -0.203895 0.000000 0.000000 0.000000 -1.718307 7.762063 -2.260967 -1.576994 12.729726 0.876728 -1.529713 15.711110 -2.539601 0.000000 0.000000 0.000000 -5.131039 7.617965 -2.977052 0.650892 -14.547070 -0.670718 6.905873 0.284794 0.432659 -11.918993 2.575416 -45.177593 -24.516278 -36.031010 -15.777674 0.000000 0.000000 0.000000 -5.060590 7.178123 -2.160351 -3.201436 16.817222 1.496667 -0.991327 1.075191 -1.789939 12.039783 -28.379077 60.999634 -27.176266 44.652993 28.002068 0.000000 0.000000 0.000000 
-0.860376 72.379433 2.358978 0.000000 0.000000 0.000000 9.118742 -47.285782 11.642966 -59.769872 16.638554 45.012852 50.866779 -21.921557 3.219948 0.219632 4.118114 -21.517811 -2.428435 -3.038647 10.876860 0.000000 0.000000 0.000000 9.148238 -45.704306 11.880334 -23.235392 8.354739 -29.591723 45.500948 8.516676 -2.137977 -24.342407 0.629538 28.547168 14.372255 4.184026 0.907664 0.000000 0.000000 0.000000 7.268917 -53.177131 10.635266 11.403406 4.585932 -3.487861 5.204150 8.772217 -4.392867 -0.471565 -2.877651 0.147753 0.000000 0.000000 0.000000 -1.805473 7.688748 -2.169948 -1.127500 12.504427 0.966423 -0.801867 16.710333 -3.534715 0.000000 0.000000 0.000000 -5.308194 7.595002 -2.910898 0.333665 -12.918709 -0.734440 7.381985 -0.983363 0.850303 -11.003047 2.695604 -44.356659 -24.370106 -36.189423 -15.773197 0.000000 0.000000 0.000000 -5.160943 7.157858 -2.015472 -3.045145 17.831098 0.808933 0.348096 2.807337 -3.146013 11.568416 -28.248573 61.446233 -27.348342 45.013071 27.801850 0.000000 0.000000 0.000000 
-0.988527 71.840744 0.797276 0.000000 0.000000 0.000000 9.687349 -50.444424 12.274101 -57.386833 13.313231 44.950363 56.217634 -21.727228 4.107812 -0.873701 5.562205 -22.341890 -0.995763 -2.111137 8.259573 0.000000 0.000000 0.000000 8.766827 -47.747940 11.351415 -24.733225 9.317685 -30.020908 46.478399 8.746361 -2.354672 -22.661142 -1.100582 28.215769 14.190572 4.348594 0.773408 0.000000 0.000000 0.000000 7.201376 -54.760782 10.353745 12.205167 3.998119 -3.678200 5.369820 8.688430 -4.452877 -0.493842 -3.675440 0.550852 0.000000 0.000000 0.000000 -1.700582 7.566751 -2.183293 -0.322928 11.938729 0.877967 -0.031208 17.811071 -4.872233 0.000000 0.000000 0.000000 -5.174826 7.535997 -2.888056 0.067031 -10.604110 -0.683790 7.966016 -2.724451 1.018415 -9.470811 2.986793 -42.703377 -24.309881 -36.455219 -16.238773 0.000000 0.000000 0.000000 -5.167480 7.038713 -1.976853 -3.053102 19.109674 0.149859 1.189544 4.188230 -3.523547 10.442960 -26.703396 60.334435 -26.460885 45.321157 26.082915 0.000000 0.000000 0.000000 
-1.421217 71.161911 -0.490471 0.000000 0.000000 0.000000 10.457860 -55.360958 12.622211 -54.475516 9.789179 44.964354 61.653085 -20.497782 4.169920 -3.599356 8.153947 -20.571961 -0.332967 -1.015291 5.201378 0.000000 0.000000 0.000000 8.372377 -51.055968 10.583820 -27.404594 11.874064 -29.825281 48.636063 9.271138 -2.858523 -20.175151 -2.910898 28.702791 9.902358 4.291378 0.978309 0.000000 0.000000 0.000000 7.577722 -57.177392 9.834233 13.055751 3.378389 -3.671444 5.561902 8.589018 -4.510442 -0.012824 -4.073414 1.407081 0.000000 0.000000 0.000000 -1.421306 7.520238 -2.233679 0.503941 11.000703 0.642333 0.467719 18.975133 -6.388834 0.000000 0.000000 0.000000 -4.733994 7.513738 -2.851560 -0.129583 -8.020508 -0.601107 8.431476 -4.430754 0.654865 -7.090971 3.769245 -40.379085 -24.327636 -36.832065 -17.075333 0.000000 0.000000 0.000000 -4.994759 6.939335 -1.987736 -3.119786 20.696945 -0.297170 1.257972 4.723392 -2.932748 8.381070 -24.188686 58.146398 -24.685946 44.896428 23.139004 0.000000 0.000000 0.000000 
-2.051392 70.617210 -1.160679 0.000000 0.000000 0.000000 11.128505 -61.197382 12.306111 -51.398837 7.109494 44.303435 66.419649 -18.311466 2.956932 -8.977128 10.736979 -15.337026 -0.378406 -0.004678 2.653310 0.000000 0.000000 0.000000 8.674236 -55.683602 9.859500 -30.646769 15.281618 -28.040165 50.725076 9.329571 -3.431960 -18.095994 -4.657608 28.467542 5.074352 3.943446 1.414072 0.000000 0.000000 0.000000 8.051109 -60.741965 8.995458 13.834933 2.906396 -3.330991 5.801946 8.568127 -4.457568 0.815107 -4.279146 2.281304 0.000000 0.000000 0.000000 -1.010071 7.596326 -2.216708 1.161446 9.797357 0.189208 0.512667 20.210485 -7.803856 0.000000 0.000000 0.000000 -4.043639 7.581564 -2.717475 -0.244241 -5.430682 -0.715309 8.752983 -5.219088 0.385441 -3.584937 5.145640 -38.062103 -24.182440 -37.465377 -18.011065 0.000000 0.000000 0.000000 -4.663373 6.966510 -1.957564 -3.172736 22.656639 -0.451939 1.141123 4.407930 -1.383903 5.215165 -20.922534 55.254581 -22.478868 43.175152 19.577887 0.000000 0.000000 0.000000 
-2.685490 70.272827 -1.155567 0.000000 0.000000 0.000000 11.565936 -67.263034 11.241275 -49.891581 4.873928 42.332020 71.472527 -16.500364 1.240200 -13.789097 10.824233 -10.268468 -0.853742 0.943101 1.185096 0.000000 0.000000 0.000000 10.249888 -61.413011 9.775772 -34.127050 18.792207 -24.414810 51.680835 8.691088 -3.865800 -17.007808 -5.805847 26.810514 2.237583 3.343348 1.824926 0.000000 0.000000 0.000000 8.991892 -65.516254 8.291261 14.318954 2.656322 -2.621877 6.112054 8.661470 -4.163522 0.881042 -4.162623 2.511270 0.000000 0.000000 0.000000 -0.490440 7.781086 -2.018581 1.639337 8.257186 -0.523103 0.231532 21.148533 -8.779978 0.000000 0.000000 0.000000 -3.252206 7.725743 -2.393604 -0.282101 -3.006877 -1.091531 8.776585 -5.025422 0.299186 1.409326 6.558247 -36.711054 -23.630382 -38.808172 -18.747911 0.000000 0.000000 0.000000 -4.208706 7.092841 -1.768786 -3.180371 25.021691 -0.191134 0.971325 3.293208 0.506558 1.231370 -16.895091 52.227380 -20.020084 39.461203 15.871903 0.000000 0.000000 0.000000 
-3.338099 70.208824 -0.859970 0.000000 0.000000 0.000000 12.523846 -72.830116 10.224620 -50.515215 2.955654 38.636184 76.918496 -15.770741 -0.151722 -14.986680 7.542478 -7.744599 -2.228642 1.733990 0.766046 0.000000 0.000000 0.000000 13.806180 -67.978189 11.185839 -37.746470 21.430101 -19.667325 50.725622 7.901714 -4.081003 -15.322508 -5.547060 25.196687 1.032734 2.682580 1.812168 0.000000 0.000000 0.000000 11.848251 -71.510284 9.268940 14.473864 2.622643 -1.630652 6.447802 8.822436 -3.564656 0.330003 -3.705433 2.504152 0.000000 0.000000 0.000000 0.084039 7.995092 -1.547185 1.846824 6.396121 -1.300318 -0.357888 21.034522 -8.839547 0.000000 0.000000 0.000000 -2.506854 7.894801 -1.825045 -0.272660 -0.934721 -1.778807 8.323362 -4.217095 0.422616 8.092746 6.948126 -37.183314 -22.309471 -41.139182 -18.819082 0.000000 0.000000 0.000000 -3.675556 7.225304 -1.345878 -3.170215 27.896386 0.512111 0.800631 1.827872 1.714216 -2.766075 -11.837250 49.388097 -17.516350 33.999896 12.433841 0.000000 0.000000 0.000000 
-4.028334 70.524834 -0.643856 0.000000 0.000000 0.000000 17.550538 -78.306562 13.111223 -52.148313 1.280999 32.303882 81.518943 -15.801448 -0.537797 -13.127337 1.857652 -7.948361 -7.208820 2.216564 2.285023 0.000000 0.000000 0.000000 22.204199 -75.512604 17.568558 -41.324984 22.712553 -14.923050 47.472284 7.926249 -4.028601 -10.999137 -2.967473 25.685370 0.244181 2.086547 1.117754 0.000000 0.000000 0.000000 20.471363 -78.400927 16.064335 14.314027 2.645564 -0.463615 6.727402 8.921999 -2.609185 -0.304736 -3.265310 1.994511 0.000000 0.000000 0.000000 0.578466 8.106069 -0.713787 1.676170 4.115977 -2.002018 -1.298118 19.206260 -7.630208 0.000000 0.000000 0.000000 -1.929339 7.996167 -0.990766 -0.252849 0.747240 -2.554359 7.644309 -3.277196 1.078771 16.313468 5.005816 -39.751308 -20.052392 -44.673098 -17.858117 0.000000 0.000000 0.000000 -3.146467 7.242260 -0.673615 -3.204221 31.153282 1.787373 0.570642 -0.360022 2.159412 -5.998541 -4.983435 46.851498 -15.177748 28.411615 9.630698 0.000000 0.000000 0.000000 
-4.580226 71.466789 -0.728165 0.000000 0.000000 0.000000 40.317627 -83.828005 34.095181 -52.821097 -0.448782 22.847177 83.554353 -15.457008 -0.025427 -11.971150 -4.232089 -8.803502 -15.944890 2.219267 5.194475 0.000000 0.000000 0.000000 51.345308 -82.703352 45.366919 -44.833908 22.609818 -11.267891 41.841131 9.534335 -3.748013 -4.200102 2.385590 28.688765 -1.079205 1.537879 -0.002692 0.000000 0.000000 0.000000 59.490804 -84.259085 53.223631 13.756437 2.574457 0.728980 6.955852 8.825947 -1.359129 -0.843846 -2.733469 1.114434 0.000000 0.000000 0.000000 0.876561 7.964332 0.481827 1.128565 1.207546 -2.281386 -2.606808 15.206124 -5.145067 0.000000 0.000000 0.000000 -1.587221 7.908051 0.053441 -0.240173 1.672812 -3.090711 6.866043 -2.813025 1.934095 24.629225 0.562294 -43.760902 -16.626759 -48.984382 -15.513569 0.000000 0.000000 0.000000 -2.633779 7.070761 0.249792 -3.406160 34.476442 3.552673 -0.053416 -3.025783 2.028138 -7.927861 4.055677 44.355785 -12.951400 24.517932 7.405047 0.000000 0.000000 0.000000 
-4.965209 73.184395 -0.455826 0.000000 0.000000 0.000000 117.053637 -84.507308 109.916069 -51.451269 -2.282978 11.749630 82.571817 -13.513636 0.214613 -14.979607 -7.937668 -7.584803 -22.035211 2.438975 6.598647 0.000000 0.000000 0.000000 130.189908 -82.038611 123.671763 -48.049343 21.423804 -9.117842 34.276580 11.845273 -3.119636 2.517108 9.045506 31.602131 -2.632756 0.980930 -0.923244 0.000000 0.000000 0.000000 131.077682 -81.764700 123.245764 12.973699 2.341255 1.838326 7.208918 8.454449 0.081074 -0.964663 -1.539800 0.644675 0.000000 0.000000 0.000000 0.898542 7.531448 1.884475 0.486003 -2.476027 -1.784120 -4.292015 8.981518 -1.717044 0.000000 0.000000 0.000000 -1.398151 7.582032 1.213378 -0.198878 1.649159 -3.160239 6.151361 -2.604672 2.859064 31.775085 -5.663452 -48.128617 -11.971035 -53.604930 -11.664250 0.000000 0.000000 0.000000 -2.192241 6.765949 1.395614 -3.783826 37.456535 5.422776 -1.107284 -5.249199 1.523814 -8.459847 14.762120 41.125655 -10.865314 24.052183 5.583590 0.000000 0.000000 0.000000 
